<?xml version="1.0" encoding="UTF-8" standalone="no" ?>
<!DOCTYPE svg PUBLIC "-//W3C//DTD SVG 1.1//EN" "http://www.w3.org/Graphics/SVG/1.1/DTD/svg11.dtd">
<svg xmlns="http://www.w3.org/2000/svg" xmlns:xlink="http://www.w3.org/1999/xlink" version="1.1" width="1080" height="1080" viewBox="0 0 1080 1080" xml:space="preserve">
<desc>Created with Fabric.js 5.2.4</desc>
<defs>
</defs>
<g transform="matrix(1 0 0 1 540 540)" id="f6017de3-4ca2-4878-b131-93e6d347a222"  >
<rect style="stroke: none; stroke-width: 1; stroke-dasharray: none; stroke-linecap: butt; stroke-dashoffset: 0; stroke-linejoin: miter; stroke-miterlimit: 4; fill: rgb(255,255,255); fill-rule: nonzero; opacity: 1; visibility: hidden;" vector-effect="non-scaling-stroke"  x="-540" y="-540" rx="0" ry="0" width="1080" height="1080" />
</g>
<g transform="matrix(1 0 0 1 540 540)" id="c46687f7-86b2-404d-91dd-f9882e90489b"  >
</g>
<g transform="matrix(NaN NaN NaN NaN 0 0)"  >
<g style=""   >
</g>
</g>
<g transform="matrix(10.46 0 0 10.46 540 519.6)" id="7b673563-65a7-469b-a9f2-515c4e64a698"  >
<path style="stroke: rgb(0,0,0); stroke-width: 0; stroke-dasharray: none; stroke-linecap: butt; stroke-dashoffset: 0; stroke-linejoin: miter; stroke-miterlimit: 4; fill: rgb(0,0,0); fill-rule: nonzero; opacity: 1;" vector-effect="non-scaling-stroke"  transform=" translate(-60.56, -61.25)" d="M 98.375 24.848 C 95.444 21.291 90.347 20.494999999999997 90.347 20.494999999999997 C 90.347 20.494999999999997 86.525 16.881 80 14.883 C 72.75 12.662999999999998 50.174 13.029 39.125 18.008 C 28.076 22.987 27.27 28.515 26.368 33.258 C 26.087999999999997 34.730000000000004 25.953 37.412000000000006 25.909 40.531000000000006 C 23.537 38.85300000000001 21.781 36.92400000000001 21.781 36.92400000000001 C 21.781 36.92400000000001 19.573 40.211000000000006 20.878999999999998 42.55100000000001 C 22.468999999999998 45.40100000000001 23.987 46.81700000000001 25.301 47.44700000000001 C 25.159 47.48000000000001 25.014 47.49900000000001 24.865 47.48600000000001 C 23.061 47.32800000000001 19.302999999999997 47.012000000000015 19.302999999999997 47.012000000000015 C 19.302999999999997 47.012000000000015 19.452999999999996 51.59600000000002 21.106999999999996 53.65100000000002 C 22.029999999999994 54.798000000000016 24.168999999999997 56.23900000000002 26.245999999999995 57.289000000000016 C 26.288999999999994 58.15700000000002 26.330999999999996 58.872000000000014 26.368999999999996 59.38300000000002 C 26.475999999999996 60.850000000000016 26.746999999999996 62.97400000000002 27.050999999999995 65.09900000000002 L 26.370999999999995 93.00100000000002 C 26.370999999999995 93.01100000000002 26.372999999999994 93.02100000000002 26.372999999999994 93.03100000000002 L 26.370999999999995 93.10800000000002 C 26.313999999999997 95.46300000000002 27.993999999999996 98.19600000000001 30.105999999999995 99.24100000000001 L 45.642999999999994 106.94900000000001 C 47.754999999999995 107.99400000000001 51.410999999999994 108.92500000000001 53.766999999999996 108.92500000000001 L 74.235 108.92500000000001 C 76.591 108.92500000000001 80.247 107.99600000000001 82.359 106.95200000000001 L 97.896 99.22000000000001 C 100.008 98.17500000000001 101.68900000000001 95.37900000000002 101.631 93.02400000000002 L 100.93900000000001 64.65000000000002 C 101.20200000000001 61.38100000000002 101.468 58.07000000000002 101.632 56.008000000000024 C 102.279 47.883 101.306 28.405 98.375 24.848 z M 95.153 93.882 L 79.68400000000001 101.58000000000001 C 78.34300000000002 102.24300000000001 75.58600000000001 102.92500000000001 74.23400000000001 102.92500000000001 L 53.766 102.92500000000001 C 52.415 102.92500000000001 49.659 102.242 48.304 101.57100000000001 L 32.773 93.86500000000001 C 32.672000000000004 93.781 32.428000000000004 93.39200000000001 32.371 93.16100000000002 L 33.222 58.22400000000002 C 34.38 56.91200000000002 35.621 55.87900000000002 36.664 55.54100000000002 C 37.177 55.37500000000002 37.833 55.07400000000002 38.558 54.71700000000002 C 36.711 57.20500000000002 35.054 59.60200000000002 34.693 60.63800000000002 C 33.797999999999995 63.20300000000002 33.585 65.30500000000002 33.585 65.30500000000002 C 33.585 65.30500000000002 35.182 75.49500000000002 36.971000000000004 78.33000000000003 C 38.760000000000005 81.16500000000002 40.30800000000001 84.37600000000003 40.30800000000001 84.37600000000003 L 39.144000000000005 79.28500000000004 L 45.086000000000006 83.99100000000004 L 49.303000000000004 83.99100000000004 L 61.955000000000005 78.59100000000004 L 64 78.59100000000004 L 66.045 78.59100000000004 L 78.697 83.99100000000004 L 82.914 83.99100000000004 L 88.856 79.28500000000004 L 87.692 84.37600000000003 C 87.692 84.37600000000003 89.24 81.16500000000003 91.029 78.33000000000003 C 92.818 75.49500000000003 94.41499999999999 65.30500000000002 94.41499999999999 65.30500000000002 C 94.41499999999999 65.30500000000002 94.201 63.203000000000024 93.30699999999999 60.63800000000002 C 92.41299999999998 58.073000000000015 83.58 47.175 83.58 47.175 L 88.39099999999999 57.334999999999994 L 88.39099999999999 59.30499999999999 C 88.39099999999999 59.30499999999999 79.975 62.010999999999996 76.01299999999999 65.92599999999999 C 72.05099999999999 69.84099999999998 66.3 71.461 66.3 71.461 L 64 71.461 L 61.7 71.461 C 61.7 71.461 55.949000000000005 69.841 51.987 65.926 C 48.025 62.01100000000001 39.609 59.305 39.609 59.305 L 39.609 57.335 L 41.567 53.199 C 44.347 51.83 47.035 50.797 47.035 52.934 C 47.035 56.491 42.976 57.675999999999995 42.976 57.675999999999995 C 42.976 57.675999999999995 50.643 57.675999999999995 58.535 55.30499999999999 C 66.42699999999999 52.93399999999999 72.28999999999999 46.532 76.34899999999999 44.87199999999999 C 80.40799999999999 43.21199999999999 88.29999999999998 44.397999999999996 93.93699999999998 51.510999999999996 C 94.18199999999999 51.81999999999999 94.41399999999999 52.151999999999994 94.63999999999999 52.492999999999995 L 95.62999999999998 93.086 C 95.576 93.319 95.334 93.724 95.153 93.882 z M 39.248 65.123 L 59.638 73.916 L 57.769 76.977 L 38.998999999999995 73.60300000000001 L 39.248 65.123 z M 68.362 73.916 L 88.752 65.12299999999999 L 89.002 73.603 L 76.333 75.88 L 70.231 76.97699999999999 L 68.362 73.916 z" stroke-linecap="round" />
</g>
</svg>